<?xml version="1.0" standalone="no"?>
<!DOCTYPE svg PUBLIC "-//W3C//DTD SVG 20010904//EN"
 "http://www.w3.org/TR/2001/REC-SVG-20010904/DTD/svg10.dtd">
<svg version="1.0" xmlns="http://www.w3.org/2000/svg"
 width="600.000000pt" height="328.000000pt" viewBox="0 0 600.000000 328.000000"
 preserveAspectRatio="xMidYMid meet">
<g transform="translate(0.000000,328.000000) scale(0.100000,-0.100000)"
fill="#000000" stroke="none">
<path d="M3664 2668 c6 -53 -12 -172 -40 -261 -49 -156 -152 -330 -328 -556
-9 -12 -8 -13 2 -7 8 5 -7 -14 -33 -40 -35 -36 -238 -285 -362 -443 -2 -3 -45
37 -96 87 -114 111 -171 142 -267 142 -136 0 -256 -90 -391 -294 -44 -65 -79
-124 -79 -129 0 -6 19 7 43 30 89 87 208 144 302 145 91 2 119 -18 311 -220
98 -103 180 -188 183 -189 3 -1 80 97 171 218 333 444 477 631 594 774 107
129 300 325 350 356 47 29 12 23 -99 -16 -55 -19 -103 -35 -107 -35 -5 0 -8
33 -8 73 0 119 -37 239 -109 354 -31 51 -43 54 -37 11z m76 -139 c0 -5 -5 -9
-12 -9 -6 0 -3 -7 8 -15 10 -8 15 -15 9 -15 -6 0 -6 -3 0 -8 18 -12 32 -75 34
-157 2 -58 7 -85 19 -98 16 -18 16 -20 -3 -33 -29 -21 -10 -17 43 10 61 31
130 59 117 49 -5 -5 -73 -56 -150 -113 -92 -69 -190 -155 -285 -251 -128 -128
-251 -269 -236 -269 7 0 66 61 94 98 20 26 177 186 285 290 21 20 45 36 53 34
9 -2 12 3 8 15 -5 15 -4 16 5 3 9 -12 4 -22 -24 -47 -19 -18 -33 -33 -30 -33
3 0 -11 -17 -30 -37 -51 -56 -104 -130 -98 -137 4 -3 -1 -6 -10 -6 -10 0 -17
-7 -17 -15 0 -9 -7 -18 -15 -21 -8 -4 -12 -11 -8 -17 4 -6 0 -8 -10 -4 -9 3
-16 3 -15 -1 4 -13 -30 -67 -61 -96 -17 -17 -31 -34 -31 -39 0 -12 -74 -109
-116 -152 -17 -17 -35 -41 -38 -53 -4 -11 -20 -35 -36 -52 -16 -17 -30 -34
-31 -38 -4 -14 -35 -57 -66 -92 -18 -19 -33 -40 -33 -45 0 -6 -8 -18 -17 -26
-36 -32 -59 -65 -55 -78 3 -8 0 -11 -7 -7 -6 4 -11 3 -11 -2 0 -5 -11 -22 -25
-38 -14 -16 -25 -33 -25 -38 0 -5 -8 -2 -18 7 -10 10 -23 17 -28 17 -5 1 -24
21 -42 46 -19 25 -36 43 -39 40 -7 -7 -43 38 -43 54 0 6 -4 9 -9 6 -5 -3 -11
4 -14 15 -3 12 -10 18 -16 14 -6 -3 -11 -2 -11 3 0 14 -36 52 -44 45 -3 -3 -6
-2 -6 3 0 14 -51 69 -61 66 -5 -1 -9 5 -9 13 0 8 -5 15 -11 15 -5 0 -8 4 -5 9
4 5 -3 7 -14 4 -12 -3 -20 0 -20 6 0 7 -4 10 -8 7 -5 -3 -20 1 -35 9 -17 9
-47 12 -84 10 -83 -6 -97 -9 -105 -20 -4 -5 -10 -6 -15 -2 -9 9 17 28 29 21 4
-3 8 -1 8 4 0 5 12 15 28 23 15 8 30 18 34 24 4 5 40 11 81 13 64 4 82 0 130
-23 32 -14 57 -30 57 -35 0 -4 8 -11 17 -14 44 -17 -26 38 -85 66 -54 26 -71
30 -114 25 -28 -4 -82 -22 -120 -42 -75 -38 -101 -58 -90 -70 4 -4 0 -5 -8 -3
-8 3 -28 -6 -44 -21 -33 -29 -27 -16 23 52 19 26 40 47 48 47 7 0 12 3 11 8
-5 14 77 83 132 110 38 19 73 28 115 29 51 2 68 -3 125 -34 68 -37 83 -51 73
-67 -3 -5 -1 -6 5 -2 7 4 12 2 12 -3 0 -6 6 -11 13 -11 8 0 20 -11 27 -25 7
-13 17 -22 22 -19 4 3 8 -2 8 -10 0 -9 5 -16 11 -16 5 0 7 -5 3 -12 -4 -7 -3
-8 4 -4 7 4 22 0 34 -8 37 -26 52 -19 112 57 15 20 33 34 39 30 6 -3 7 -1 3 6
-11 17 53 94 72 86 12 -4 13 -3 2 10 -9 11 -9 15 -1 15 6 0 15 8 18 17 4 10
19 29 34 43 15 14 36 41 48 60 11 19 21 31 21 25 0 -5 8 5 16 23 9 17 20 32
25 32 13 0 68 62 69 77 0 6 -4 13 -10 15 -5 2 15 28 45 59 30 31 57 54 60 51
3 -4 3 1 -1 11 -4 11 0 19 10 23 9 4 23 21 32 38 26 54 41 76 47 69 4 -3 7 -1
7 6 0 6 21 48 46 93 47 82 94 198 94 230 0 10 4 18 9 18 5 0 8 6 8 13 -1 6 2
38 7 69 l8 57 24 -26 c13 -14 24 -30 24 -34z"/>
<path d="M3703 2306 c-7 -33 -11 -62 -9 -64 8 -7 28 74 24 98 -2 17 -7 5 -15
-34z"/>
<path d="M3674 2203 c-4 -16 -18 -50 -31 -77 l-25 -49 32 23 c19 13 29 28 26
36 -3 8 0 33 8 54 8 22 10 40 5 40 -5 0 -12 -12 -15 -27z"/>
<path d="M3364 1885 c-21 -19 -34 -34 -29 -34 15 -1 81 56 74 63 -3 3 -23 -10
-45 -29z"/>
<path d="M3259 1598 c-18 -15 -124 -150 -124 -158 0 -3 -10 -17 -23 -30 -13
-14 -28 -34 -34 -45 -5 -11 7 -2 27 20 19 22 40 50 45 63 6 14 15 20 22 16 6
-4 8 -3 5 3 -9 15 69 96 84 87 8 -5 9 -2 1 12 -8 14 -6 21 6 31 10 7 14 13 11
13 -3 0 -12 -6 -20 -12z"/>
<path d="M2250 1889 l0 -351 28 22 c15 11 42 31 59 43 l33 22 0 248 0 247 518
0 517 0 38 60 37 60 -615 0 -615 0 0 -351z m1158 292 c2 -14 -2 -21 -12 -21
-9 0 -16 -3 -16 -7 0 -5 -223 -7 -497 -6 -370 1 -499 -2 -508 -11 -28 -28 -34
-57 -33 -182 2 -284 -3 -321 -44 -336 -15 -6 -17 12 -20 200 -2 114 -1 212 3
217 3 6 3 37 -1 69 -3 33 -5 70 -2 83 l4 23 542 2 c297 2 550 0 561 -3 11 -3
21 -16 23 -28z"/>
<path d="M3623 1750 l-63 -80 0 -438 0 -437 -595 0 -596 0 3 238 c2 161 0 237
-8 237 -5 0 -33 -12 -62 -26 l-52 -26 0 -274 0 -274 720 0 720 0 0 580 c0 319
-2 580 -3 580 -1 0 -30 -36 -64 -80z m32 -536 c-1 -272 -5 -498 -9 -502 -4 -4
-313 -8 -686 -9 l-679 -3 -1 245 c0 211 2 246 15 251 8 3 13 9 11 13 -2 3 6 6
18 6 21 0 21 -2 21 -207 0 -173 3 -210 15 -223 14 -13 91 -15 590 -18 322 -2
587 1 602 6 15 5 30 18 34 30 4 12 8 213 8 445 l1 424 22 18 c12 9 19 21 15
24 -3 4 1 4 9 1 14 -5 15 -62 14 -501z"/>
</g>
</svg>
