<?xml version="1.0" standalone="no"?>
<!DOCTYPE svg PUBLIC "-//W3C//DTD SVG 20010904//EN"
 "http://www.w3.org/TR/2001/REC-SVG-20010904/DTD/svg10.dtd">
<svg version="1.0" xmlns="http://www.w3.org/2000/svg"
 width="600.000000pt" height="281.000000pt" viewBox="0 0 600.000000 281.000000"
 preserveAspectRatio="xMidYMid meet">
<g transform="translate(0.000000,281.000000) scale(0.100000,-0.100000)"
fill="#000000" stroke="none">
<path d="M3910 2388 c-75 -173 -253 -366 -492 -531 -190 -131 -275 -245 -302
-403 l-5 -31 52 14 c66 17 96 16 182 -3 103 -23 195 -21 250 6 56 27 58 40 5
33 -38 -5 -219 22 -249 37 -7 4 44 10 115 13 208 8 364 86 433 216 15 28 13
27 -61 -13 -75 -41 -174 -69 -317 -90 -159 -23 -151 -15 49 49 221 72 347 162
415 297 54 109 47 121 -27 52 -72 -66 -136 -109 -239 -159 -97 -47 -115 -41
-36 12 184 126 258 244 265 426 5 129 -5 150 -38 75z"/>
<path d="M3043 2319 c-126 -80 -178 -320 -123 -563 l11 -49 -99 -101 c-147
-150 -194 -228 -211 -347 -33 -242 135 -448 369 -453 92 -1 87 5 96 -126 8
-121 -35 -183 -126 -182 -57 1 -67 11 -31 33 82 49 55 170 -41 185 -76 13
-134 -50 -126 -136 13 -128 189 -195 306 -117 82 54 116 206 77 342 -5 16 2
23 39 38 98 40 186 173 186 281 0 148 -89 247 -245 271 l-69 11 -12 78 -13 79
50 56 c180 201 209 464 74 668 -40 60 -60 66 -112 32z m105 -194 c30 -66 1
-167 -81 -275 -74 -99 -73 -99 -82 -17 -16 145 52 317 125 317 19 0 30 -7 38
-25z m-176 -760 c-169 -100 -165 -337 7 -390 21 -6 20 -3 -12 29 -41 41 -54
89 -38 139 11 33 66 95 75 86 5 -5 56 -327 56 -351 0 -34 -158 13 -216 64
-131 115 -109 307 55 480 l66 70 12 -58 c11 -53 10 -60 -5 -69z m198 -145 c63
-45 87 -148 51 -225 -18 -38 -76 -103 -85 -94 -2 2 -14 69 -26 149 -12 80 -24
158 -27 174 -6 28 -5 29 26 23 18 -4 45 -16 61 -27z"/>
<path d="M2775 2146 c-33 -12 -91 -39 -129 -59 -56 -30 -80 -37 -124 -37 -120
0 -178 -57 -191 -187 -6 -55 -17 -96 -38 -138 -111 -221 -123 -473 -32 -692
30 -71 33 -90 38 -215 9 -199 35 -227 225 -238 85 -5 121 -11 152 -28 l41 -21
-5 44 c-2 24 0 58 6 75 16 44 -24 60 -151 60 -132 0 -131 -2 -137 157 -5 118
-8 136 -44 228 -69 180 -61 360 25 546 36 79 41 99 41 162 0 119 1 119 123
123 71 2 90 6 164 43 47 23 91 41 98 41 8 0 13 13 13 33 0 17 7 53 15 80 17
57 7 60 -90 23z"/>
<path d="M3274 2128 c4 -18 10 -55 13 -83 l6 -50 69 -34 c76 -38 80 -37 147
18 20 17 31 33 27 40 -17 28 -227 141 -262 141 -3 0 -3 -15 0 -32z"/>
<path d="M2735 1803 c-154 -80 -265 -272 -265 -461 0 -72 25 -212 38 -212 4 0
7 60 8 133 1 215 68 368 220 504 75 68 75 76 -1 36z"/>
<path d="M2147 1662 c-107 -118 -124 -411 -36 -597 28 -59 76 -121 54 -70 -72
169 -80 415 -20 604 26 82 27 90 2 63z"/>
<path d="M3960 1629 c0 -6 7 -34 15 -62 37 -134 37 -334 -1 -479 -22 -86 -11
-94 24 -18 62 136 74 293 34 427 -27 88 -72 170 -72 132z"/>
<path d="M2008 1598 c-45 -86 -51 -114 -56 -239 -5 -137 6 -197 54 -290 35
-71 45 -68 24 7 -43 149 -45 363 -5 497 21 71 13 82 -17 25z"/>
<path d="M3764 1556 c-23 -17 -48 -35 -57 -41 -14 -9 -15 -17 -6 -55 22 -93 7
-243 -39 -376 -39 -111 -42 -129 -42 -223 0 -139 -11 -151 -138 -151 -120 0
-265 -64 -276 -122 -3 -19 -20 -56 -36 -81 -16 -26 -26 -47 -21 -47 17 0 89
29 182 74 91 43 101 46 180 46 106 0 151 13 197 55 l36 33 7 138 c7 126 11
149 44 238 51 141 65 269 43 417 -19 132 -21 135 -74 95z"/>
<path d="M3895 1545 c27 -134 15 -370 -26 -494 -24 -75 -19 -87 14 -34 72 114
99 318 59 450 -23 75 -59 134 -47 78z"/>
<path d="M1866 1422 c-33 -64 -28 -172 10 -203 12 -10 14 8 14 110 0 130 -2
136 -24 93z"/>
<path d="M4111 1330 c0 -124 0 -125 19 -102 38 46 38 153 0 202 l-20 25 1
-125z"/>
<path d="M3520 1298 c0 -136 -69 -310 -167 -417 l-58 -65 44 25 c138 77 219
230 209 397 -5 78 -28 127 -28 60z"/>
</g>
</svg>
