<?xml version="1.0" standalone="no"?>
<!DOCTYPE svg PUBLIC "-//W3C//DTD SVG 20010904//EN"
 "http://www.w3.org/TR/2001/REC-SVG-20010904/DTD/svg10.dtd">
<svg version="1.0" xmlns="http://www.w3.org/2000/svg"
 width="1800.000000pt" height="843.000000pt" viewBox="0 0 1800.000000 843.000000"
 preserveAspectRatio="xMidYMid meet">
<g transform="translate(0.000000,843.000000) scale(0.100000,-0.100000)"
fill="#000000" stroke="none">
<path d="M11587 8333 c-2 -5 0 -48 6 -98 7 -66 7 -126 -3 -225 -7 -74 -16
-173 -21 -220 -14 -155 -60 -385 -105 -528 -8 -23 -14 -49 -14 -57 0 -8 -6
-29 -14 -47 -8 -18 -24 -66 -37 -106 -12 -40 -26 -75 -30 -78 -5 -3 -9 -14 -9
-24 0 -10 -6 -31 -14 -47 -8 -15 -33 -71 -56 -123 -47 -105 -86 -187 -100
-210 -5 -8 -26 -49 -45 -90 -20 -41 -44 -88 -55 -105 -11 -16 -27 -43 -36 -60
-111 -202 -386 -613 -582 -870 -12 -17 -34 -48 -49 -70 -14 -22 -46 -63 -70
-91 -23 -28 -43 -56 -43 -61 0 -5 -12 -20 -26 -34 -14 -13 -45 -53 -70 -89
-24 -36 -65 -90 -90 -120 -34 -42 -44 -61 -41 -83 2 -15 -1 -27 -7 -26 -28 3
-37 -5 -69 -58 -19 -32 -57 -81 -84 -110 -28 -28 -68 -73 -89 -100 -21 -26
-56 -68 -79 -93 -22 -25 -60 -70 -85 -99 -25 -29 -55 -64 -67 -78 -13 -13 -23
-27 -23 -31 0 -4 -17 -25 -38 -47 -38 -41 -158 -188 -245 -299 -26 -34 -58
-72 -70 -86 -13 -14 -52 -63 -87 -110 -57 -77 -83 -108 -154 -190 -12 -14 -37
-45 -56 -70 -19 -25 -48 -61 -65 -81 -16 -19 -55 -66 -85 -103 -30 -38 -65
-79 -77 -92 -12 -13 -36 -44 -53 -69 -17 -25 -34 -45 -38 -45 -4 0 -126 120
-272 266 -329 330 -450 429 -649 527 -52 26 -104 47 -116 47 -12 0 -30 7 -41
15 -10 8 -31 15 -45 15 -15 0 -43 7 -62 15 -49 20 -338 21 -411 1 -64 -18
-133 -36 -166 -42 -22 -5 -124 -50 -170 -75 -8 -4 -37 -20 -65 -35 -27 -14
-64 -37 -82 -50 -17 -13 -35 -24 -40 -24 -5 0 -31 -20 -60 -45 -28 -25 -54
-45 -58 -45 -9 0 -79 -65 -185 -171 -117 -118 -158 -164 -215 -239 -27 -36
-63 -81 -81 -101 -26 -30 -159 -221 -199 -287 -6 -9 -28 -44 -50 -77 -45 -68
-60 -91 -75 -120 -6 -11 -19 -33 -30 -50 -11 -16 -25 -41 -31 -55 -5 -14 -21
-39 -35 -57 -13 -17 -24 -34 -24 -37 0 -4 -16 -29 -35 -56 -19 -27 -35 -54
-35 -60 0 -5 -4 -10 -10 -10 -5 0 -10 -7 -10 -15 0 -30 37 -14 85 37 99 104
240 220 380 313 33 22 62 42 65 45 7 7 41 28 65 40 11 6 34 19 50 30 17 11 37
22 45 26 8 3 22 10 30 15 8 5 22 12 30 15 8 3 22 10 30 15 8 5 22 12 30 15 8
3 30 12 48 20 31 14 58 25 135 58 21 9 50 16 65 16 15 0 36 6 47 14 36 24 325
35 460 16 74 -10 176 -48 240 -90 17 -11 37 -23 45 -27 69 -31 294 -255 708
-705 34 -37 81 -87 104 -111 24 -24 115 -120 203 -213 88 -93 203 -214 256
-269 120 -126 149 -158 149 -167 0 -5 6 -8 14 -8 14 0 56 51 273 335 59 77
110 142 113 145 4 3 24 30 45 60 20 30 50 69 65 85 33 36 480 632 480 640 0 5
60 84 118 153 15 19 54 71 87 116 33 46 134 181 225 302 91 120 172 229 180
241 33 48 262 344 285 369 14 15 25 31 25 35 0 5 13 24 30 42 16 19 44 55 62
80 50 70 250 331 263 342 6 6 20 24 30 40 10 17 24 37 32 45 7 8 36 44 64 80
28 36 61 76 73 90 30 34 146 188 146 194 0 3 14 20 31 38 17 18 59 68 92 111
183 233 245 308 372 451 11 13 45 53 75 91 30 37 69 82 85 100 17 17 84 92
150 165 220 244 710 726 859 845 27 22 60 48 72 60 12 11 36 31 53 45 17 14
31 28 31 32 0 14 -64 8 -84 -7 -11 -8 -29 -15 -40 -15 -12 0 -30 -7 -40 -15
-11 -8 -30 -15 -43 -15 -13 0 -31 -4 -41 -10 -22 -13 -153 -59 -217 -76 -27
-8 -59 -18 -70 -23 -11 -5 -33 -12 -50 -14 -16 -3 -43 -9 -60 -15 -16 -6 -55
-18 -85 -28 -30 -9 -71 -26 -90 -36 -19 -10 -44 -18 -55 -18 -20 0 -20 5 -16
241 3 247 -2 304 -45 486 -7 34 -14 74 -14 90 -1 15 -7 39 -15 53 -8 14 -14
39 -15 56 0 17 -6 37 -14 43 -7 6 -16 29 -19 50 -2 21 -17 62 -31 91 -14 28
-26 60 -26 70 0 9 -7 23 -15 30 -8 7 -15 19 -15 26 0 8 -14 42 -31 76 -17 35
-34 70 -38 78 -30 61 -102 187 -140 245 -26 39 -64 99 -86 135 -45 75 -66 95
-78 73z m134 -365 c6 -24 15 -51 20 -60 5 -10 9 -33 9 -52 0 -18 7 -53 16 -77
8 -24 17 -87 20 -139 8 -166 15 -240 24 -235 5 3 7 72 5 153 -3 81 -5 168 -5
194 1 25 -4 49 -10 53 -12 8 -14 45 -1 45 5 0 11 -8 15 -17 3 -10 14 -31 25
-48 11 -16 20 -45 20 -62 1 -20 6 -33 14 -33 25 0 105 -204 93 -236 -3 -8 1
-28 9 -44 8 -16 15 -47 15 -68 0 -28 7 -47 25 -66 17 -18 24 -34 20 -47 -3
-10 4 -48 16 -83 23 -67 21 -89 -6 -66 -13 10 -15 9 -15 -7 0 -11 8 -31 19
-44 10 -13 22 -40 26 -59 12 -60 17 -208 7 -227 -7 -11 -7 -24 0 -36 7 -13 6
-28 -2 -47 -9 -22 -9 -38 0 -67 18 -60 40 -103 51 -103 6 0 25 -11 43 -25 18
-14 45 -25 59 -25 39 0 33 -17 -9 -24 -19 -4 -44 -15 -54 -24 -48 -44 -80 -62
-107 -62 -11 0 -34 -16 -53 -35 -19 -19 -45 -35 -56 -35 -12 0 -27 -7 -34 -15
-7 -8 -19 -15 -26 -15 -19 0 -94 -40 -94 -51 0 -16 41 -9 67 11 14 11 32 20
40 20 7 0 31 11 53 25 22 14 44 25 50 25 6 0 13 6 16 14 3 8 21 17 40 20 19 4
34 11 34 15 0 12 99 71 120 71 10 0 74 27 142 61 236 117 412 193 430 187 7
-3 -6 -17 -28 -33 -21 -16 -55 -40 -74 -55 -19 -14 -53 -37 -75 -50 -22 -13
-101 -69 -175 -125 -74 -56 -163 -118 -197 -139 -35 -20 -75 -47 -89 -59 -14
-12 -43 -36 -63 -52 -20 -17 -56 -46 -81 -65 -25 -18 -49 -38 -55 -45 -5 -6
-26 -21 -46 -33 -19 -12 -47 -32 -60 -44 -14 -13 -45 -38 -69 -57 -25 -19 -49
-39 -55 -46 -5 -6 -44 -39 -85 -74 -41 -35 -83 -72 -93 -82 -10 -11 -22 -19
-26 -19 -5 0 -29 -19 -53 -42 -79 -76 -170 -158 -174 -158 -7 0 -418 -415
-534 -539 -110 -118 -131 -141 -210 -230 -19 -21 -51 -56 -70 -78 -19 -21 -47
-58 -62 -81 -16 -23 -39 -48 -52 -57 -12 -8 -31 -31 -42 -50 -10 -19 -21 -35
-25 -35 -3 0 -28 -28 -54 -62 -57 -74 -62 -80 -112 -133 -45 -48 -72 -81 -120
-144 -19 -25 -59 -73 -88 -106 -62 -71 -76 -96 -66 -114 21 -33 84 30 73 72
-3 10 1 17 10 17 8 0 20 15 27 33 7 18 28 44 47 56 19 13 34 31 34 40 0 9 14
25 30 36 16 11 30 23 30 28 0 4 13 7 29 7 25 0 28 3 23 25 -3 19 5 34 39 68
24 24 58 63 74 87 17 24 49 62 73 85 24 22 52 56 63 75 11 20 36 46 55 59 18
13 34 30 34 38 0 25 35 54 56 46 16 -6 17 -4 7 8 -8 10 -9 19 -2 29 8 11 12
12 16 3 2 -7 12 -13 20 -13 10 0 13 5 8 18 -18 43 -17 52 2 52 11 0 25 11 31
25 6 14 18 25 26 25 9 0 20 9 26 20 6 11 17 20 26 20 8 0 19 11 24 24 5 13 24
39 43 57 19 19 54 57 77 84 24 28 52 53 64 56 13 3 20 12 18 22 -3 17 64 87
83 87 6 0 26 20 138 138 38 40 73 72 78 72 5 0 9 3 9 8 0 14 85 100 105 106
24 7 125 99 125 114 0 16 47 42 71 39 15 -1 24 5 28 18 9 29 53 85 67 85 7 0
35 23 61 51 26 27 72 62 101 76 28 15 52 30 52 35 0 5 11 13 25 18 14 5 25 16
25 24 0 8 14 23 30 33 17 9 30 25 30 35 0 16 3 16 20 6 24 -15 38 -3 23 20 -9
16 -7 18 25 18 19 0 30 -2 24 -4 -18 -6 -14 -42 3 -42 8 0 15 -7 15 -15 0 -8
-9 -15 -20 -15 -11 0 -20 5 -20 10 0 6 -5 10 -11 10 -6 0 -9 -7 -5 -15 3 -10
-5 -20 -25 -30 -25 -13 -28 -19 -19 -35 12 -22 1 -27 -17 -9 -7 7 -20 8 -30 5
-17 -7 -17 -8 0 -20 9 -7 17 -16 17 -20 0 -7 -67 -76 -74 -76 -2 0 -6 10 -10
22 -4 19 -8 20 -18 10 -11 -11 -10 -16 5 -26 9 -7 17 -16 17 -20 0 -4 -27 -33
-60 -65 -33 -32 -60 -64 -60 -70 0 -6 -34 -45 -75 -86 -41 -41 -75 -82 -75
-90 0 -21 -41 -75 -56 -75 -7 0 -14 6 -17 13 -2 6 -2 1 0 -13 2 -17 -5 -33
-22 -50 -14 -14 -31 -31 -38 -39 -6 -7 -24 -25 -39 -39 -16 -15 -28 -31 -28
-37 0 -6 -16 -28 -35 -49 -19 -21 -35 -43 -35 -48 0 -15 -110 -132 -131 -140
-26 -10 -31 -26 -13 -36 23 -13 10 -30 -19 -25 -30 6 -51 -19 -44 -53 3 -18
-1 -29 -14 -37 -11 -7 -19 -17 -19 -24 0 -17 -40 -17 -40 0 -1 6 -9 -9 -18
-34 -21 -57 -102 -179 -119 -179 -7 0 -13 -6 -13 -12 -1 -7 -17 -31 -36 -53
-28 -32 -37 -37 -44 -25 -16 26 -35 -3 -20 -30 10 -18 9 -25 -8 -40 -11 -11
-25 -35 -32 -55 -12 -37 -24 -44 -34 -20 -10 28 -28 16 -21 -14 5 -24 2 -30
-14 -36 -12 -3 -30 -26 -41 -51 -11 -24 -27 -44 -35 -44 -8 0 -15 -9 -15 -20
0 -10 -6 -23 -14 -27 -20 -11 -64 -78 -72 -109 -5 -18 -12 -24 -27 -22 -16 2
-23 -5 -29 -31 -5 -19 -17 -35 -28 -38 -11 -3 -21 -18 -24 -39 -4 -19 -16 -38
-27 -45 -11 -6 -25 -24 -31 -40 -5 -16 -14 -29 -18 -29 -4 0 -34 -32 -66 -72
-78 -95 -87 -106 -129 -152 -19 -21 -35 -41 -35 -46 0 -4 -7 -13 -15 -20 -8
-7 -13 -16 -10 -20 3 -4 -8 -22 -25 -39 -16 -18 -27 -38 -23 -46 7 -20 -58
-88 -71 -75 -19 19 -28 10 -21 -20 6 -26 2 -35 -25 -60 -18 -17 -36 -30 -41
-30 -4 0 -16 -17 -25 -37 -10 -21 -24 -42 -31 -46 -7 -4 -13 -16 -13 -26 0
-10 -11 -23 -25 -29 -14 -6 -25 -18 -25 -26 0 -7 -9 -16 -20 -19 -16 -4 -19
-11 -14 -39 4 -21 2 -28 -3 -20 -15 20 -45 3 -39 -22 3 -14 -3 -29 -21 -46
-24 -23 -26 -23 -38 -7 -18 25 -28 4 -13 -28 10 -23 10 -29 -4 -39 -21 -15
-148 -184 -148 -197 0 -5 -11 -15 -25 -21 -18 -8 -25 -19 -25 -40 0 -26 -2
-28 -26 -22 -25 6 -26 5 -20 -20 5 -22 0 -32 -30 -59 -20 -17 -45 -35 -55 -39
-12 -5 -16 -13 -12 -28 6 -21 -26 -61 -58 -72 -9 -4 -20 -19 -23 -34 -4 -15
-23 -44 -43 -63 -19 -20 -41 -51 -49 -68 -8 -18 -19 -33 -24 -33 -6 0 -10 -6
-10 -13 0 -8 -11 -24 -25 -37 -14 -13 -25 -29 -25 -36 0 -6 -9 -14 -20 -17
-14 -4 -20 -14 -20 -35 0 -25 -5 -31 -29 -37 -35 -8 -66 -39 -58 -60 4 -10
-10 -31 -38 -60 -25 -24 -45 -50 -45 -56 0 -7 -16 -31 -35 -55 -19 -23 -35
-47 -35 -53 0 -20 -23 -24 -37 -5 -14 17 -14 16 -8 -13 6 -32 -6 -46 -20 -23
-3 6 -17 7 -31 4 -14 -4 -24 -2 -24 5 0 6 5 11 10 11 6 0 10 5 10 11 0 6 -9 8
-21 4 -18 -6 -20 -4 -14 17 6 19 5 21 -6 11 -7 -7 -18 -13 -24 -13 -7 0 -46
39 -89 87 -141 161 -211 236 -261 285 -71 68 -80 75 -105 83 -16 5 -19 10 -11
18 18 18 13 47 -9 47 -14 0 -20 7 -20 21 0 18 -4 20 -30 14 -28 -6 -44 9 -18
17 7 3 5 13 -7 31 -12 19 -23 26 -36 22 -12 -4 -19 1 -24 15 -3 11 -12 20 -20
20 -8 0 -17 9 -20 20 -3 11 -13 20 -21 20 -11 0 -13 6 -9 19 6 21 -20 54 -68
85 -16 9 -33 31 -39 47 -5 16 -15 29 -22 29 -30 0 -67 27 -73 53 -4 18 -12 27
-24 27 -11 0 -21 10 -25 25 -3 13 -15 27 -25 30 -18 6 -23 16 -20 42 3 20 -19
54 -30 47 -5 -3 -7 -14 -4 -25 4 -10 3 -19 -2 -19 -21 0 -52 33 -58 60 -4 17
-11 30 -15 30 -8 0 -30 18 -92 77 -10 9 -18 25 -18 35 0 20 -16 25 -22 6 -4
-10 -10 -10 -31 -1 -28 13 -37 48 -15 55 6 2 8 9 5 15 -5 8 -15 8 -36 0 -33
-12 -63 -4 -55 16 4 10 -5 17 -31 21 -19 4 -67 20 -105 35 -53 22 -81 28 -110
24 -31 -4 -40 -2 -40 10 0 18 -37 29 -60 17 -16 -9 -76 0 -99 15 -7 3 -22 0
-35 -9 -20 -12 -29 -13 -55 -3 -28 10 -42 8 -108 -15 -58 -20 -81 -23 -94 -15
-13 8 -23 7 -43 -6 -14 -9 -32 -17 -41 -17 -8 0 -39 -11 -68 -25 -37 -19 -61
-24 -84 -20 -32 6 -47 -8 -20 -18 8 -3 5 -7 -7 -12 -13 -6 -23 -3 -31 8 -17
23 -46 21 -52 -3 -3 -11 -11 -20 -18 -20 -7 0 -24 -9 -39 -21 -24 -19 -46 -19
-46 1 0 19 65 80 86 80 14 0 25 8 29 20 4 12 16 30 28 40 16 16 17 20 5 20 -8
0 -27 -11 -41 -24 -15 -14 -35 -27 -47 -31 -28 -9 -80 -63 -80 -85 0 -9 -7
-23 -15 -30 -12 -10 -16 -9 -21 4 -3 9 -9 16 -13 16 -10 0 -81 -66 -81 -75 0
-17 -54 -65 -72 -65 -11 0 -18 -7 -18 -19 0 -10 -9 -21 -20 -24 -17 -4 -19 -1
-14 21 10 39 23 62 37 63 7 0 32 27 57 59 57 75 98 125 133 163 15 17 27 36
27 44 0 11 20 36 91 113 9 9 19 29 23 43 9 38 43 54 62 30 12 -16 13 -14 8 25
-7 42 1 53 23 31 16 -16 35 -1 28 21 -7 23 11 36 30 20 10 -9 15 -6 20 12 8
25 109 128 126 128 6 0 8 9 4 20 -8 24 22 40 36 19 6 -11 9 -8 9 9 0 12 6 22
14 22 7 0 19 7 26 15 8 10 21 13 39 8 23 -6 25 -5 13 10 -16 19 -6 45 11 28
19 -19 57 -13 57 9 0 13 10 24 28 31 15 6 41 23 57 38 17 16 48 34 70 41 22 7
61 24 88 39 41 22 49 24 57 11 8 -13 13 -12 40 3 18 11 55 20 88 21 31 2 74 9
95 17 35 12 40 12 49 -4 9 -17 11 -17 28 -2 19 17 31 17 145 0 22 -4 49 -10
60 -15 11 -5 63 -23 115 -40 52 -17 107 -39 121 -50 20 -14 29 -16 38 -7 8 8
14 8 23 -1 10 -10 10 -15 -2 -22 -24 -15 -2 -24 26 -11 25 11 44 8 44 -8 0 -5
-10 -11 -22 -15 -19 -5 -20 -8 -8 -16 8 -5 23 -7 32 -4 10 3 21 -3 28 -16 6
-12 21 -20 35 -20 15 0 25 -6 25 -14 0 -20 19 -31 32 -18 8 8 21 -1 45 -32 19
-24 47 -49 62 -55 17 -8 30 -23 37 -44 5 -20 17 -33 29 -36 28 -5 55 -30 48
-47 -3 -10 0 -12 10 -8 10 3 24 -6 38 -25 13 -17 28 -31 35 -31 7 0 16 -9 19
-20 4 -11 17 -28 31 -36 18 -12 22 -22 18 -39 -5 -20 0 -25 32 -35 20 -7 62
-37 92 -66 30 -30 58 -54 64 -54 5 0 6 -5 2 -11 -8 -14 13 -29 41 -29 11 0 33
-7 49 -15 15 -8 37 -15 48 -15 37 0 138 63 138 87 0 7 11 13 26 13 22 0 25 2
14 15 -10 12 -10 18 1 31 12 14 14 14 24 0 10 -13 14 -9 24 25 9 29 32 59 82
106 38 36 68 71 66 77 -2 6 2 24 10 40 12 22 20 27 42 24 25 -4 26 -2 23 29
-4 30 -2 33 22 33 21 0 26 5 26 25 0 14 8 29 20 35 11 6 20 17 20 26 0 8 7 17
15 20 8 4 15 15 15 25 0 11 8 23 18 26 26 10 60 50 64 75 2 15 10 23 23 23 21
0 44 29 45 57 0 9 11 25 25 36 14 11 25 25 25 31 0 5 9 15 20 21 11 6 20 20
20 31 0 12 10 23 25 29 14 5 25 16 25 25 0 8 5 16 10 16 6 1 15 3 20 4 6 1 15
3 20 4 6 0 10 12 10 26 0 14 5 25 11 25 7 0 9 11 6 30 -6 29 5 41 18 20 10
-16 27 0 22 20 -3 12 0 17 8 13 16 -6 37 30 29 50 -4 11 2 16 18 19 13 2 28
15 36 31 8 16 27 33 43 39 23 8 28 15 24 29 -10 29 26 81 52 76 19 -3 21 -1
16 30 -4 26 -2 33 10 33 24 0 97 74 97 97 0 25 26 38 34 17 3 -8 10 -14 16
-14 15 0 30 44 17 52 -12 7 45 83 74 99 10 5 19 16 19 24 0 7 14 23 30 35 17
12 30 26 30 32 0 5 25 34 55 63 30 29 55 57 55 62 0 5 11 15 25 21 15 7 32 26
39 43 7 16 27 39 44 49 36 22 42 50 12 50 -12 0 -55 -35 -105 -85 -47 -47 -90
-85 -95 -85 -19 0 -10 26 22 60 18 19 58 64 89 100 31 36 72 81 92 100 20 19
37 40 37 47 0 6 18 31 40 54 22 24 40 47 40 51 0 5 18 28 40 51 21 24 44 55
49 69 5 15 23 32 38 40 19 9 29 22 31 40 2 19 10 28 25 30 17 2 23 12 27 38 4
29 9 35 29 35 26 0 39 19 22 30 -19 11 -13 38 8 32 14 -3 24 8 45 55 23 49 31
58 47 53 16 -5 19 -1 19 27 0 25 6 36 23 43 13 6 22 19 22 33 0 13 10 31 22
40 35 27 73 90 73 121 0 34 9 44 26 30 11 -9 15 -7 20 7 16 47 54 122 68 133
8 7 18 25 21 41 3 16 13 34 20 40 8 6 19 28 26 48 6 20 18 45 27 55 8 9 12 20
9 24 -4 3 7 21 23 40 17 18 30 39 30 46 0 7 5 18 11 24 14 14 49 110 49 134 0
9 6 22 14 28 8 7 18 26 21 42 4 16 11 27 15 24 12 -7 30 28 30 58 0 13 11 41
25 61 14 20 25 47 25 60 0 13 7 29 15 36 8 7 15 22 15 33 0 22 12 63 40 142
10 28 22 66 25 85 4 19 16 62 26 94 10 33 19 79 19 104 0 24 13 101 29 171 41
175 43 191 34 236 -4 22 -7 59 -5 83 3 34 7 42 22 42 14 0 22 -11 31 -42z
m449 -1898 c0 -5 -8 -13 -17 -19 -10 -5 -18 -15 -18 -23 0 -18 -19 -22 -23 -4
-2 8 5 24 15 35 18 22 43 28 43 11z m-2040 -1155 c-7 -8 -16 -15 -21 -15 -5 0
-6 7 -3 15 4 8 13 15 21 15 13 0 13 -3 3 -15z m-4157 -2020 c1 -5 -13 -11 -30
-12 -32 -3 -41 5 -26 21 10 10 53 3 56 -9z"/>
<path d="M11795 7218 c-2 -7 -6 -64 -8 -125 -4 -92 -2 -113 9 -113 11 0 14 25
14 125 0 114 -4 146 -15 113z"/>
<path d="M11767 6934 c-11 -11 -9 -134 3 -134 19 0 31 77 18 110 -7 17 -16 28
-21 24z"/>
<path d="M11730 6726 c0 -36 -5 -68 -11 -71 -18 -12 -28 -52 -20 -82 8 -28 8
-27 21 17 6 25 19 64 27 87 9 26 12 55 7 77 -10 58 -24 41 -24 -28z"/>
<path d="M11670 6514 c-6 -14 -10 -36 -10 -49 0 -12 -6 -25 -14 -28 -8 -3 -16
-23 -18 -44 -6 -44 -48 -164 -66 -186 -7 -7 -15 -28 -18 -45 -4 -17 -13 -37
-20 -43 -8 -6 -14 -18 -14 -26 0 -8 -21 -46 -46 -83 -34 -51 -44 -74 -39 -90
6 -18 9 -19 18 -7 18 20 94 77 104 77 11 0 63 53 63 64 0 5 -13 6 -30 4 -25
-4 -30 -1 -30 16 0 12 9 35 19 53 11 17 23 48 27 67 3 20 10 36 15 36 5 0 9 8
9 18 0 10 9 35 20 56 10 21 22 59 26 85 4 25 11 49 16 52 15 10 23 99 9 99 -6
0 -16 -12 -21 -26z"/>
<path d="M11728 6148 c-42 -22 -54 -54 -16 -42 28 8 78 45 78 56 0 12 -21 7
-62 -14z"/>
<path d="M10676 5364 c-9 -8 -16 -19 -16 -24 0 -5 -9 -12 -20 -15 -24 -7 -27
-25 -5 -25 9 0 18 7 21 15 4 8 12 15 19 15 12 0 45 31 45 43 0 13 -29 7 -44
-9z"/>
<path d="M10474 5202 c-17 -15 -44 -37 -60 -49 -26 -19 -27 -22 -11 -28 14 -6
26 1 46 22 15 17 37 36 49 42 12 6 22 18 22 26 0 21 -11 18 -46 -13z"/>
<path d="M9810 3791 c0 -5 -6 -16 -13 -23 -28 -30 -117 -146 -117 -154 0 -5
-14 -27 -30 -48 -36 -48 -37 -56 -6 -56 25 0 36 16 36 53 0 13 25 49 60 87 33
35 60 68 60 74 0 5 9 20 21 32 12 12 18 27 14 33 -8 13 -25 14 -25 2z"/>
<path d="M9567 3473 c-4 -3 -7 -13 -7 -21 0 -8 -11 -26 -25 -41 -14 -14 -39
-41 -56 -59 -34 -35 -69 -94 -69 -114 0 -7 10 -1 23 14 12 14 32 31 45 37 12
7 22 20 22 29 0 10 14 28 30 40 17 13 30 29 30 37 0 8 9 24 20 35 11 11 20 27
20 35 0 15 -21 21 -33 8z"/>
<path d="M7195 3439 c-10 -15 0 -21 27 -17 l23 3 -22 13 c-15 8 -24 9 -28 1z"/>
<path d="M6670 3415 c0 -16 9 -19 34 -9 25 9 19 24 -9 24 -16 0 -25 -6 -25
-15z"/>
<path d="M7300 3400 c0 -5 12 -10 28 -9 24 0 25 1 7 9 -27 12 -35 12 -35 0z"/>
<path d="M6521 3350 c-13 -11 -31 -20 -41 -20 -10 0 -23 -7 -30 -15 -10 -13
-9 -15 9 -15 30 0 111 42 111 57 0 19 -21 15 -49 -7z"/>
<path d="M6370 3272 c-30 -16 -56 -34 -58 -41 -6 -19 29 -12 58 12 15 12 36
27 46 33 11 7 16 14 13 18 -3 3 -30 -7 -59 -22z"/>
<path d="M6219 3184 c-11 -14 -9 -15 16 -12 16 1 30 9 33 16 6 18 -33 15 -49
-4z"/>
<path d="M9313 3146 c-27 -28 -30 -46 -8 -46 8 0 15 6 15 14 0 7 7 19 15 26
16 13 20 30 8 30 -5 0 -18 -11 -30 -24z"/>
<path d="M9258 3076 c-19 -18 -24 -46 -9 -46 15 0 33 28 29 46 -3 17 -4 17
-20 0z"/>
<path d="M9090 2830 c0 -19 3 -21 12 -12 9 9 9 15 0 24 -9 9 -12 7 -12 -12z"/>
<path d="M8040 2821 c0 -13 29 -35 37 -28 7 8 -15 37 -28 37 -5 0 -9 -4 -9 -9z"/>
<path d="M8150 2720 c0 -11 7 -20 15 -20 17 0 18 2 9 24 -9 23 -24 20 -24 -4z"/>
<path d="M8785 2440 c-3 -5 3 -10 15 -10 12 0 18 5 15 10 -3 6 -10 10 -15 10
-5 0 -12 -4 -15 -10z"/>
<path d="M8450 2415 c13 -14 30 -25 38 -25 10 0 6 9 -12 25 -15 14 -32 25 -38
25 -6 0 -1 -11 12 -25z"/>
<path d="M6084 6529 c-2 -4 -4 -618 -4 -1365 0 -934 3 -1360 10 -1362 6 -2 22
10 37 27 15 17 32 31 38 31 6 0 25 13 42 29 17 15 37 31 45 35 26 13 54 31 68
44 26 22 138 101 190 133 l50 31 0 951 c0 524 0 957 0 962 0 7 676 9 2014 7
l2014 -2 33 67 c18 38 49 93 69 123 20 31 39 62 44 70 22 45 88 144 113 172
14 14 24 31 22 37 -4 12 -4777 22 -4785 10z m4556 -89 c0 -12 -7 -32 -16 -46
-18 -26 -12 -46 8 -26 16 16 28 15 28 -3 0 -8 -4 -15 -8 -15 -5 0 -24 -27 -43
-61 -18 -33 -42 -65 -51 -70 -10 -5 -18 -16 -18 -24 0 -8 -12 -21 -28 -29 -22
-11 -91 -14 -352 -15 -343 -1 -1577 0 -1645 1 -22 1 -274 0 -560 -1 -286 0
-700 1 -920 3 -353 4 -402 3 -417 -11 -13 -12 -21 -13 -31 -4 -11 8 -19 3 -38
-27 -14 -21 -34 -38 -47 -40 -17 -3 -21 -8 -17 -21 3 -10 -1 -24 -10 -31 -13
-11 -15 -55 -14 -319 1 -168 1 -542 0 -830 0 -370 3 -528 10 -538 7 -8 8 -13
1 -13 -10 0 -18 -29 -29 -102 -4 -31 -17 -47 -81 -100 -89 -73 -126 -98 -148
-98 -11 0 -15 6 -11 20 3 13 -1 21 -15 26 -16 5 -18 11 -13 32 4 15 8 57 10
94 1 37 8 81 15 98 9 22 9 34 1 43 -7 10 -10 253 -10 833 1 1141 2 1205 16
1230 9 16 27 23 70 29 32 4 918 9 1968 12 1051 2 1921 4 1935 5 14 0 101 0
194 -1 92 0 173 2 178 5 5 3 16 0 25 -8 13 -11 18 -10 27 5 15 23 36 22 36 -3z"/>
<path d="M11659 4923 c-9 -2 -49 -52 -88 -111 -64 -96 -111 -157 -187 -245
-14 -15 -32 -40 -42 -55 -17 -29 -71 -95 -129 -161 l-33 -36 3 -1697 2 -1698
-2312 0 c-1271 0 -2313 3 -2315 8 -2 4 -1 421 2 927 3 589 2 923 -5 927 -5 4
-23 -1 -40 -11 -58 -35 -244 -125 -320 -156 -22 -9 -57 -23 -77 -32 l-38 -17
0 -1070 0 -1071 2737 3 c1724 1 2755 -1 2783 -7 25 -5 48 -6 53 -2 4 4 8 999
10 2212 1 1705 5 2212 14 2238 14 37 6 59 -18 54z m-86 -370 c3 -32 4 -159 2
-283 -4 -231 -4 -334 -2 -500 1 -52 0 -214 -2 -360 -2 -146 -3 -627 -3 -1070
1 -443 0 -1014 -2 -1270 -3 -501 -4 -510 -55 -533 -27 -12 -713 -15 -1796 -7
-104 0 -203 1 -220 1 -199 -2 -2982 0 -3102 2 -154 2 -164 3 -185 25 l-23 22
5 438 c3 240 5 498 4 572 -6 789 -6 812 11 830 14 16 14 18 -7 33 l-23 16 22
0 c12 1 26 7 30 15 9 16 100 79 157 108 l38 20 29 -28 29 -28 -20 -21 c-24
-25 -25 -38 -5 -55 10 -9 12 -16 5 -25 -5 -6 -7 -36 -5 -66 3 -30 5 -189 4
-354 -3 -734 1 -1048 12 -1061 6 -7 8 -18 4 -24 -4 -6 2 -20 14 -31 12 -11 21
-24 21 -29 0 -6 7 -10 17 -10 9 0 46 -14 82 -31 51 -24 72 -29 91 -23 21 8
940 11 1210 5 47 -1 168 0 270 3 128 4 192 2 208 -6 17 -9 41 -9 100 0 91 14
139 15 146 3 3 -4 25 -6 48 -4 24 2 552 4 1173 4 642 -1 1173 3 1230 8 l100
10 42 48 c69 79 65 25 62 883 -1 168 -1 719 -1 1225 0 1059 0 1018 -1 1110 -2
106 22 225 46 225 4 0 24 16 43 36 27 29 32 42 27 62 -5 21 -3 24 12 19 33
-13 125 86 125 134 0 11 6 19 14 19 9 0 15 -18 19 -57z"/>
<path d="M6490 850 c-12 -8 -9 -10 13 -10 16 0 26 4 22 10 -8 12 -16 12 -35 0z"/>
</g>
</svg>
